<mxfile host="app.diagrams.net" modified="2022-12-21T12:49:39.901Z" agent="5.0 (X11)" etag="MWq9_rK18Ht_yjMcN3HX" version="20.7.4" type="github" pages="5">
  <diagram id="tqCFLl0A-Law9fGavUvA" name="scalability_trilemma">
    <mxGraphModel dx="2074" dy="1093" grid="1" gridSize="10" guides="1" tooltips="1" connect="1" arrows="1" fold="1" page="1" pageScale="1" pageWidth="827" pageHeight="1169" math="0" shadow="0">
      <root>
        <mxCell id="8TJE4RRf8oA7ZbTnIAyT-0" />
        <mxCell id="8TJE4RRf8oA7ZbTnIAyT-1" parent="8TJE4RRf8oA7ZbTnIAyT-0" />
        <mxCell id="8TJE4RRf8oA7ZbTnIAyT-2" value="" style="triangle;whiteSpace=wrap;html=1;rotation=-90;sketch=1;fillStyle=hachure;fillColor=#CCCCCC;" parent="8TJE4RRf8oA7ZbTnIAyT-1" vertex="1">
          <mxGeometry x="249" y="145" width="330" height="440" as="geometry" />
        </mxCell>
        <mxCell id="8TJE4RRf8oA7ZbTnIAyT-3" value="Participation&lt;br&gt;(high n)" style="text;html=1;strokeColor=none;fillColor=none;align=center;verticalAlign=middle;whiteSpace=wrap;rounded=0;sketch=1;fontFamily=Gloria Hallelujah;fontSource=https%3A%2F%2Ffonts.googleapis.com%2Fcss%3Ffamily%3DGloria%2BHallelujah;fontSize=20;" parent="8TJE4RRf8oA7ZbTnIAyT-1" vertex="1">
          <mxGeometry x="346" y="157" width="136" height="30" as="geometry" />
        </mxCell>
        <mxCell id="8TJE4RRf8oA7ZbTnIAyT-4" value="Low&lt;br&gt;overhead&lt;br&gt;(low w)" style="text;html=1;strokeColor=none;fillColor=none;align=center;verticalAlign=middle;whiteSpace=wrap;rounded=0;sketch=1;fontFamily=Gloria Hallelujah;fontSource=https%3A%2F%2Ffonts.googleapis.com%2Fcss%3Ffamily%3DGloria%2BHallelujah;fontSize=20;" parent="8TJE4RRf8oA7ZbTnIAyT-1" vertex="1">
          <mxGeometry x="590" y="527" width="136" height="30" as="geometry" />
        </mxCell>
        <mxCell id="8TJE4RRf8oA7ZbTnIAyT-5" value="Fast&lt;br&gt;finality&lt;br&gt;(low f)" style="text;html=1;strokeColor=none;fillColor=none;align=center;verticalAlign=middle;whiteSpace=wrap;rounded=0;sketch=1;fontFamily=Gloria Hallelujah;fontSource=https%3A%2F%2Ffonts.googleapis.com%2Fcss%3Ffamily%3DGloria%2BHallelujah;fontSize=20;" parent="8TJE4RRf8oA7ZbTnIAyT-1" vertex="1">
          <mxGeometry x="100" y="527" width="136" height="30" as="geometry" />
        </mxCell>
        <mxCell id="8TJE4RRf8oA7ZbTnIAyT-6" value="" style="group" parent="8TJE4RRf8oA7ZbTnIAyT-1" vertex="1" connectable="0">
          <mxGeometry x="414" y="320" width="60" height="50" as="geometry" />
        </mxCell>
        <mxCell id="8TJE4RRf8oA7ZbTnIAyT-7" value="&lt;font data-font-src=&quot;https://fonts.googleapis.com/css?family=Gloria+Hallelujah&quot; style=&quot;font-size: 20px&quot; face=&quot;Gloria Hallelujah&quot;&gt;x&lt;/font&gt;" style="ellipse;whiteSpace=wrap;html=1;aspect=fixed;sketch=1;" parent="8TJE4RRf8oA7ZbTnIAyT-6" vertex="1">
          <mxGeometry x="5" width="50" height="50" as="geometry" />
        </mxCell>
        <mxCell id="8TJE4RRf8oA7ZbTnIAyT-15" value="" style="group" parent="8TJE4RRf8oA7ZbTnIAyT-1" vertex="1" connectable="0">
          <mxGeometry x="275" y="340" width="60" height="50" as="geometry" />
        </mxCell>
        <mxCell id="8TJE4RRf8oA7ZbTnIAyT-16" value="&lt;font data-font-src=&quot;https://fonts.googleapis.com/css?family=Gloria+Hallelujah&quot; style=&quot;font-size: 20px&quot; face=&quot;Gloria Hallelujah&quot;&gt;2&lt;/font&gt;" style="ellipse;whiteSpace=wrap;html=1;aspect=fixed;sketch=1;" parent="8TJE4RRf8oA7ZbTnIAyT-15" vertex="1">
          <mxGeometry x="5" width="50" height="50" as="geometry" />
        </mxCell>
        <mxCell id="8TJE4RRf8oA7ZbTnIAyT-10" value="&lt;font data-font-src=&quot;https://fonts.googleapis.com/css?family=Gloria+Hallelujah&quot; style=&quot;font-size: 20px&quot; face=&quot;Gloria Hallelujah&quot;&gt;1&lt;/font&gt;" style="ellipse;whiteSpace=wrap;html=1;aspect=fixed;sketch=1;" parent="8TJE4RRf8oA7ZbTnIAyT-1" vertex="1">
          <mxGeometry x="498" y="339.66" width="50" height="50" as="geometry" />
        </mxCell>
        <mxCell id="8TJE4RRf8oA7ZbTnIAyT-13" value="&lt;font data-font-src=&quot;https://fonts.googleapis.com/css?family=Gloria+Hallelujah&quot; style=&quot;font-size: 20px&quot; face=&quot;Gloria Hallelujah&quot;&gt;3&lt;/font&gt;" style="ellipse;whiteSpace=wrap;html=1;aspect=fixed;sketch=1;" parent="8TJE4RRf8oA7ZbTnIAyT-1" vertex="1">
          <mxGeometry x="389" y="507" width="50" height="50" as="geometry" />
        </mxCell>
      </root>
    </mxGraphModel>
  </diagram>
  <diagram id="JJC0Kog0ir4RuhiCyfWr" name="weights">
    <mxGraphModel dx="2074" dy="1093" grid="1" gridSize="10" guides="1" tooltips="1" connect="1" arrows="1" fold="1" page="1" pageScale="1" pageWidth="827" pageHeight="1169" math="0" shadow="0">
      <root>
        <mxCell id="0" />
        <mxCell id="1" parent="0" />
        <mxCell id="D4HkDNJ_emZeFU57lI15-1" value="" style="ellipse;whiteSpace=wrap;html=1;aspect=fixed;sketch=1;fillStyle=solid;fillColor=none;" parent="1" vertex="1">
          <mxGeometry x="200" y="90" width="480" height="480" as="geometry" />
        </mxCell>
        <mxCell id="D4HkDNJ_emZeFU57lI15-3" value="" style="endArrow=none;html=1;rounded=0;sketch=1;" parent="1" edge="1">
          <mxGeometry width="50" height="50" relative="1" as="geometry">
            <mxPoint x="440" y="330" as="sourcePoint" />
            <mxPoint x="270.3" y="160.3" as="targetPoint" />
          </mxGeometry>
        </mxCell>
        <mxCell id="D4HkDNJ_emZeFU57lI15-4" value="" style="endArrow=none;html=1;rounded=0;sketch=1;" parent="1" edge="1">
          <mxGeometry x="200" y="90" width="50" height="50" as="geometry">
            <mxPoint x="440" y="330" as="sourcePoint" />
            <mxPoint x="440" y="90" as="targetPoint" />
          </mxGeometry>
        </mxCell>
        <mxCell id="D4HkDNJ_emZeFU57lI15-9" value="" style="endArrow=none;html=1;rounded=0;sketch=1;" parent="1" edge="1">
          <mxGeometry width="50" height="50" relative="1" as="geometry">
            <mxPoint x="440" y="330" as="sourcePoint" />
            <mxPoint x="675.4" y="283.2" as="targetPoint" />
          </mxGeometry>
        </mxCell>
        <mxCell id="D4HkDNJ_emZeFU57lI15-10" value="" style="endArrow=none;html=1;rounded=0;sketch=1;" parent="1" edge="1">
          <mxGeometry width="50" height="50" relative="1" as="geometry">
            <mxPoint x="440" y="330" as="sourcePoint" />
            <mxPoint x="270.3" y="499.7" as="targetPoint" />
          </mxGeometry>
        </mxCell>
        <mxCell id="D4HkDNJ_emZeFU57lI15-11" value="" style="endArrow=none;html=1;rounded=0;sketch=1;" parent="1" edge="1">
          <mxGeometry width="50" height="50" relative="1" as="geometry">
            <mxPoint x="440" y="330" as="sourcePoint" />
            <mxPoint x="240.4" y="196.7" as="targetPoint" />
          </mxGeometry>
        </mxCell>
        <mxCell id="D4HkDNJ_emZeFU57lI15-12" value="&lt;font data-font-src=&quot;https://fonts.googleapis.com/css?family=Gloria+Hallelujah&quot; style=&quot;font-size: 20px&quot; face=&quot;Gloria Hallelujah&quot;&gt;Timely source&lt;br&gt;21.9%&lt;br&gt;&lt;/font&gt;" style="text;html=1;strokeColor=none;fillColor=none;align=center;verticalAlign=middle;whiteSpace=wrap;rounded=0;sketch=1;" parent="1" vertex="1">
          <mxGeometry x="460" y="210" width="170" height="30" as="geometry" />
        </mxCell>
        <mxCell id="D4HkDNJ_emZeFU57lI15-13" value="&lt;font data-font-src=&quot;https://fonts.googleapis.com/css?family=Gloria+Hallelujah&quot; style=&quot;font-size: 20px&quot; face=&quot;Gloria Hallelujah&quot;&gt;Timely head&lt;br&gt;21.9%&lt;br&gt;&lt;/font&gt;" style="text;html=1;strokeColor=none;fillColor=none;align=center;verticalAlign=middle;whiteSpace=wrap;rounded=0;sketch=1;" parent="1" vertex="1">
          <mxGeometry x="240" y="330" width="130" height="30" as="geometry" />
        </mxCell>
        <mxCell id="D4HkDNJ_emZeFU57lI15-14" value="&lt;font data-font-src=&quot;https://fonts.googleapis.com/css?family=Gloria+Hallelujah&quot; style=&quot;font-size: 20px&quot; face=&quot;Gloria Hallelujah&quot;&gt;Timely target&lt;br&gt;40.6%&lt;br&gt;&lt;/font&gt;" style="text;html=1;strokeColor=none;fillColor=none;align=center;verticalAlign=middle;whiteSpace=wrap;rounded=0;sketch=1;" parent="1" vertex="1">
          <mxGeometry x="430" y="450" width="170" height="30" as="geometry" />
        </mxCell>
        <mxCell id="D4HkDNJ_emZeFU57lI15-15" value="&lt;font data-font-src=&quot;https://fonts.googleapis.com/css?family=Gloria+Hallelujah&quot; style=&quot;font-size: 20px&quot; face=&quot;Gloria Hallelujah&quot;&gt;Proposer&lt;br&gt;12.5%&lt;br&gt;&lt;/font&gt;" style="text;html=1;strokeColor=none;fillColor=none;align=center;verticalAlign=middle;whiteSpace=wrap;rounded=0;sketch=1;" parent="1" vertex="1">
          <mxGeometry x="290" y="150" width="170" height="30" as="geometry" />
        </mxCell>
        <mxCell id="D4HkDNJ_emZeFU57lI15-16" value="&lt;font data-font-src=&quot;https://fonts.googleapis.com/css?family=Gloria+Hallelujah&quot; style=&quot;font-size: 20px&quot; face=&quot;Gloria Hallelujah&quot;&gt;sync reward&lt;br&gt;&lt;/font&gt;" style="text;html=1;strokeColor=none;fillColor=none;align=left;verticalAlign=middle;whiteSpace=wrap;rounded=0;sketch=1;" parent="1" vertex="1">
          <mxGeometry x="200" y="90" width="70" height="30" as="geometry" />
        </mxCell>
        <mxCell id="D4HkDNJ_emZeFU57lI15-21" value="" style="curved=1;endArrow=classic;html=1;rounded=0;sketch=1;fontFamily=Gloria Hallelujah;fontSource=https%3A%2F%2Ffonts.googleapis.com%2Fcss%3Ffamily%3DGloria%2BHallelujah;fontSize=20;" parent="1" edge="1">
          <mxGeometry width="50" height="50" relative="1" as="geometry">
            <mxPoint x="230" y="130" as="sourcePoint" />
            <mxPoint x="270" y="200" as="targetPoint" />
            <Array as="points">
              <mxPoint x="250" y="190" />
              <mxPoint x="250" y="140" />
            </Array>
          </mxGeometry>
        </mxCell>
        <mxCell id="YEQ89O4KJ75Ul0dXMHsq-1" value="&lt;font style=&quot;font-size: 20px&quot; face=&quot;Gloria Hallelujah&quot;&gt;3.1%&lt;/font&gt;&lt;font data-font-src=&quot;https://fonts.googleapis.com/css?family=Gloria+Hallelujah&quot; style=&quot;font-size: 20px&quot; face=&quot;Gloria Hallelujah&quot;&gt;&lt;br&gt;&lt;/font&gt;" style="text;html=1;strokeColor=none;fillColor=none;align=left;verticalAlign=middle;whiteSpace=wrap;rounded=0;sketch=1;" parent="1" vertex="1">
          <mxGeometry x="280" y="200" width="70" height="30" as="geometry" />
        </mxCell>
      </root>
    </mxGraphModel>
  </diagram>
  <diagram id="TEzGpkD_BScJtpz_H-H7" name="rewards_eligibility">
    <mxGraphModel dx="2074" dy="1093" grid="1" gridSize="10" guides="1" tooltips="1" connect="1" arrows="1" fold="1" page="1" pageScale="1" pageWidth="827" pageHeight="1169" math="0" shadow="0">
      <root>
        <mxCell id="e_V9jyjYhn7S388zU6wH-0" />
        <mxCell id="e_V9jyjYhn7S388zU6wH-1" parent="e_V9jyjYhn7S388zU6wH-0" />
        <mxCell id="e_V9jyjYhn7S388zU6wH-2" value="" style="endArrow=none;html=1;rounded=0;sketch=1;" parent="e_V9jyjYhn7S388zU6wH-1" edge="1">
          <mxGeometry width="50" height="50" relative="1" as="geometry">
            <mxPoint x="120" y="120" as="sourcePoint" />
            <mxPoint x="1080" y="120" as="targetPoint" />
          </mxGeometry>
        </mxCell>
        <mxCell id="e_V9jyjYhn7S388zU6wH-3" value="&lt;p&gt;&lt;font data-font-src=&quot;https://fonts.googleapis.com/css?family=Gloria+Hallelujah&quot; style=&quot;font-size: 24px&quot; face=&quot;Gloria Hallelujah&quot;&gt;x&lt;/font&gt;&lt;/p&gt;" style="text;html=1;strokeColor=none;fillColor=none;align=center;verticalAlign=middle;whiteSpace=wrap;rounded=0;" parent="e_V9jyjYhn7S388zU6wH-1" vertex="1">
          <mxGeometry x="171" y="100" width="58" height="33" as="geometry" />
        </mxCell>
        <mxCell id="e_V9jyjYhn7S388zU6wH-4" value="&lt;p&gt;&lt;font data-font-src=&quot;https://fonts.googleapis.com/css?family=Gloria+Hallelujah&quot; style=&quot;font-size: 24px&quot; face=&quot;Gloria Hallelujah&quot;&gt;x&lt;/font&gt;&lt;/p&gt;" style="text;html=1;strokeColor=none;fillColor=none;align=center;verticalAlign=middle;whiteSpace=wrap;rounded=0;" parent="e_V9jyjYhn7S388zU6wH-1" vertex="1">
          <mxGeometry x="811" y="100" width="58" height="33" as="geometry" />
        </mxCell>
        <mxCell id="e_V9jyjYhn7S388zU6wH-5" value="&lt;p&gt;&lt;font data-font-src=&quot;https://fonts.googleapis.com/css?family=Gloria+Hallelujah&quot; style=&quot;font-size: 24px&quot; face=&quot;Gloria Hallelujah&quot;&gt;x&lt;/font&gt;&lt;/p&gt;" style="text;html=1;strokeColor=none;fillColor=none;align=center;verticalAlign=middle;whiteSpace=wrap;rounded=0;" parent="e_V9jyjYhn7S388zU6wH-1" vertex="1">
          <mxGeometry x="973" y="100" width="58" height="33" as="geometry" />
        </mxCell>
        <mxCell id="e_V9jyjYhn7S388zU6wH-6" value="&lt;div style=&quot;font-size: 20px&quot;&gt;&lt;font data-font-src=&quot;https://fonts.googleapis.com/css?family=Gloria+Hallelujah&quot; style=&quot;font-size: 20px&quot; face=&quot;Gloria Hallelujah&quot;&gt;Activation&lt;/font&gt;&lt;/div&gt;" style="text;html=1;strokeColor=none;fillColor=none;align=center;verticalAlign=middle;whiteSpace=wrap;rounded=0;fontSize=24;" parent="e_V9jyjYhn7S388zU6wH-1" vertex="1">
          <mxGeometry x="172" y="80" width="60" height="30" as="geometry" />
        </mxCell>
        <mxCell id="e_V9jyjYhn7S388zU6wH-7" value="&lt;div style=&quot;font-size: 20px&quot;&gt;&lt;font data-font-src=&quot;https://fonts.googleapis.com/css?family=Gloria+Hallelujah&quot; face=&quot;Gloria Hallelujah&quot;&gt;Exit&lt;/font&gt;&lt;/div&gt;" style="text;html=1;strokeColor=none;fillColor=none;align=center;verticalAlign=middle;whiteSpace=wrap;rounded=0;fontSize=24;" parent="e_V9jyjYhn7S388zU6wH-1" vertex="1">
          <mxGeometry x="809" y="80" width="60" height="30" as="geometry" />
        </mxCell>
        <mxCell id="e_V9jyjYhn7S388zU6wH-8" value="&lt;div style=&quot;font-size: 20px&quot;&gt;&lt;font data-font-src=&quot;https://fonts.googleapis.com/css?family=Gloria+Hallelujah&quot; face=&quot;Gloria Hallelujah&quot;&gt;Withdrawable&lt;/font&gt;&lt;/div&gt;" style="text;html=1;strokeColor=none;fillColor=none;align=center;verticalAlign=middle;whiteSpace=wrap;rounded=0;fontSize=24;" parent="e_V9jyjYhn7S388zU6wH-1" vertex="1">
          <mxGeometry x="971" y="78.5" width="60" height="33" as="geometry" />
        </mxCell>
        <mxCell id="e_V9jyjYhn7S388zU6wH-9" value="" style="endArrow=classic;startArrow=classic;html=1;rounded=0;sketch=1;fontFamily=Gloria Hallelujah;fontSource=https%3A%2F%2Ffonts.googleapis.com%2Fcss%3Ffamily%3DGloria%2BHallelujah;fontSize=20;" parent="e_V9jyjYhn7S388zU6wH-1" edge="1">
          <mxGeometry width="50" height="50" relative="1" as="geometry">
            <mxPoint x="200" y="181" as="sourcePoint" />
            <mxPoint x="840" y="181" as="targetPoint" />
          </mxGeometry>
        </mxCell>
        <mxCell id="e_V9jyjYhn7S388zU6wH-10" value="&lt;div style=&quot;font-size: 20px&quot;&gt;&lt;font data-font-src=&quot;https://fonts.googleapis.com/css?family=Gloria+Hallelujah&quot; style=&quot;font-size: 20px&quot; face=&quot;Gloria Hallelujah&quot;&gt;Eligible for Rewards and Penalties&lt;br&gt;&lt;/font&gt;&lt;/div&gt;" style="text;html=1;strokeColor=none;fillColor=none;align=center;verticalAlign=middle;whiteSpace=wrap;rounded=0;fontSize=24;" parent="e_V9jyjYhn7S388zU6wH-1" vertex="1">
          <mxGeometry x="320" y="150" width="400" height="30" as="geometry" />
        </mxCell>
        <mxCell id="e_V9jyjYhn7S388zU6wH-11" value="" style="endArrow=classic;startArrow=classic;html=1;rounded=0;sketch=1;fontFamily=Gloria Hallelujah;fontSource=https%3A%2F%2Ffonts.googleapis.com%2Fcss%3Ffamily%3DGloria%2BHallelujah;fontSize=20;" parent="e_V9jyjYhn7S388zU6wH-1" edge="1">
          <mxGeometry width="50" height="50" relative="1" as="geometry">
            <mxPoint x="840" y="240" as="sourcePoint" />
            <mxPoint x="1000" y="240" as="targetPoint" />
          </mxGeometry>
        </mxCell>
        <mxCell id="e_V9jyjYhn7S388zU6wH-12" value="&lt;div style=&quot;font-size: 20px&quot;&gt;&lt;font data-font-src=&quot;https://fonts.googleapis.com/css?family=Gloria+Hallelujah&quot; style=&quot;font-size: 20px&quot; face=&quot;Gloria Hallelujah&quot;&gt;Extra penalties&lt;br&gt;if slashed&lt;br&gt;&lt;/font&gt;&lt;/div&gt;" style="text;html=1;strokeColor=none;fillColor=none;align=center;verticalAlign=middle;whiteSpace=wrap;rounded=0;fontSize=24;" parent="e_V9jyjYhn7S388zU6wH-1" vertex="1">
          <mxGeometry x="721" y="223" width="400" height="30" as="geometry" />
        </mxCell>
        <mxCell id="e_V9jyjYhn7S388zU6wH-13" value="" style="endArrow=classic;startArrow=classic;html=1;rounded=0;sketch=1;fontFamily=Gloria Hallelujah;fontSource=https%3A%2F%2Ffonts.googleapis.com%2Fcss%3Ffamily%3DGloria%2BHallelujah;fontSize=20;" parent="e_V9jyjYhn7S388zU6wH-1" edge="1">
          <mxGeometry width="50" height="50" relative="1" as="geometry">
            <mxPoint x="200" y="300" as="sourcePoint" />
            <mxPoint x="1000" y="300" as="targetPoint" />
          </mxGeometry>
        </mxCell>
        <mxCell id="e_V9jyjYhn7S388zU6wH-14" value="&lt;div style=&quot;font-size: 20px&quot;&gt;&lt;font data-font-src=&quot;https://fonts.googleapis.com/css?family=Gloria+Hallelujah&quot; style=&quot;font-size: 20px&quot; face=&quot;Gloria Hallelujah&quot;&gt;Liable to being slashed&lt;br&gt;&lt;/font&gt;&lt;/div&gt;" style="text;html=1;strokeColor=none;fillColor=none;align=center;verticalAlign=middle;whiteSpace=wrap;rounded=0;fontSize=24;" parent="e_V9jyjYhn7S388zU6wH-1" vertex="1">
          <mxGeometry x="400" y="270" width="400" height="30" as="geometry" />
        </mxCell>
      </root>
    </mxGraphModel>
  </diagram>
  <diagram id="BOafxlaYyoRWaTWxOnQq" name="reward_split">
    <mxGraphModel dx="2074" dy="1093" grid="1" gridSize="10" guides="1" tooltips="1" connect="1" arrows="1" fold="1" page="1" pageScale="1" pageWidth="827" pageHeight="1169" math="0" shadow="0">
      <root>
        <mxCell id="x7fiBjVDYnCUOZbmYNum-0" />
        <mxCell id="x7fiBjVDYnCUOZbmYNum-1" parent="x7fiBjVDYnCUOZbmYNum-0" />
        <mxCell id="x7fiBjVDYnCUOZbmYNum-2" value="" style="ellipse;whiteSpace=wrap;html=1;sketch=1;fillStyle=solid;fillColor=none;" parent="x7fiBjVDYnCUOZbmYNum-1" vertex="1">
          <mxGeometry x="613" y="100" width="510" height="476" as="geometry" />
        </mxCell>
        <mxCell id="x7fiBjVDYnCUOZbmYNum-4" value="" style="endArrow=none;html=1;rounded=0;sketch=1;" parent="x7fiBjVDYnCUOZbmYNum-1" edge="1">
          <mxGeometry x="76" y="100" width="50" height="50" as="geometry">
            <mxPoint x="316" y="340" as="sourcePoint" />
            <mxPoint x="316" y="100" as="targetPoint" />
          </mxGeometry>
        </mxCell>
        <mxCell id="x7fiBjVDYnCUOZbmYNum-5" value="" style="endArrow=none;html=1;rounded=0;sketch=1;" parent="x7fiBjVDYnCUOZbmYNum-1" edge="1">
          <mxGeometry width="50" height="50" relative="1" as="geometry">
            <mxPoint x="316" y="340" as="sourcePoint" />
            <mxPoint x="556" y="340" as="targetPoint" />
          </mxGeometry>
        </mxCell>
        <mxCell id="x7fiBjVDYnCUOZbmYNum-6" value="" style="endArrow=none;html=1;rounded=0;sketch=1;" parent="x7fiBjVDYnCUOZbmYNum-1" edge="1">
          <mxGeometry width="50" height="50" relative="1" as="geometry">
            <mxPoint x="316" y="340" as="sourcePoint" />
            <mxPoint x="82" y="394" as="targetPoint" />
          </mxGeometry>
        </mxCell>
        <mxCell id="x7fiBjVDYnCUOZbmYNum-7" value="" style="endArrow=none;html=1;rounded=0;sketch=1;" parent="x7fiBjVDYnCUOZbmYNum-1" edge="1">
          <mxGeometry width="50" height="50" relative="1" as="geometry">
            <mxPoint x="316" y="340" as="sourcePoint" />
            <mxPoint x="252" y="106" as="targetPoint" />
          </mxGeometry>
        </mxCell>
        <mxCell id="x7fiBjVDYnCUOZbmYNum-8" value="&lt;font data-font-src=&quot;https://fonts.googleapis.com/css?family=Gloria+Hallelujah&quot; style=&quot;font-size: 20px&quot; face=&quot;Gloria Hallelujah&quot;&gt;Timely source&lt;br&gt;25%&lt;br&gt;&lt;/font&gt;" style="text;html=1;strokeColor=none;fillColor=none;align=center;verticalAlign=middle;whiteSpace=wrap;rounded=0;sketch=1;" parent="x7fiBjVDYnCUOZbmYNum-1" vertex="1">
          <mxGeometry x="336" y="220" width="170" height="30" as="geometry" />
        </mxCell>
        <mxCell id="x7fiBjVDYnCUOZbmYNum-9" value="&lt;font data-font-src=&quot;https://fonts.googleapis.com/css?family=Gloria+Hallelujah&quot; style=&quot;font-size: 20px&quot; face=&quot;Gloria Hallelujah&quot;&gt;Timely head&lt;br&gt;25%&lt;br&gt;&lt;/font&gt;" style="text;html=1;strokeColor=none;fillColor=none;align=center;verticalAlign=middle;whiteSpace=wrap;rounded=0;sketch=1;" parent="x7fiBjVDYnCUOZbmYNum-1" vertex="1">
          <mxGeometry x="130" y="260" width="130" height="30" as="geometry" />
        </mxCell>
        <mxCell id="x7fiBjVDYnCUOZbmYNum-10" value="&lt;font data-font-src=&quot;https://fonts.googleapis.com/css?family=Gloria+Hallelujah&quot; style=&quot;font-size: 20px&quot; face=&quot;Gloria Hallelujah&quot;&gt;Timely target&lt;br&gt;46.4%&lt;br&gt;&lt;/font&gt;" style="text;html=1;strokeColor=none;fillColor=none;align=center;verticalAlign=middle;whiteSpace=wrap;rounded=0;sketch=1;" parent="x7fiBjVDYnCUOZbmYNum-1" vertex="1">
          <mxGeometry x="250" y="440" width="170" height="30" as="geometry" />
        </mxCell>
        <mxCell id="x7fiBjVDYnCUOZbmYNum-11" value="&lt;font data-font-src=&quot;https://fonts.googleapis.com/css?family=Gloria+Hallelujah&quot; style=&quot;font-size: 20px&quot; face=&quot;Gloria Hallelujah&quot;&gt;sync committee&lt;br&gt;&lt;/font&gt;" style="text;html=1;strokeColor=none;fillColor=none;align=left;verticalAlign=middle;whiteSpace=wrap;rounded=0;sketch=1;" parent="x7fiBjVDYnCUOZbmYNum-1" vertex="1">
          <mxGeometry x="116" y="80" width="70" height="30" as="geometry" />
        </mxCell>
        <mxCell id="x7fiBjVDYnCUOZbmYNum-12" value="" style="curved=1;endArrow=classic;html=1;rounded=0;sketch=1;fontFamily=Gloria Hallelujah;fontSource=https%3A%2F%2Ffonts.googleapis.com%2Fcss%3Ffamily%3DGloria%2BHallelujah;fontSize=20;" parent="x7fiBjVDYnCUOZbmYNum-1" edge="1">
          <mxGeometry width="50" height="50" relative="1" as="geometry">
            <mxPoint x="207" y="87" as="sourcePoint" />
            <mxPoint x="286" y="120" as="targetPoint" />
            <Array as="points">
              <mxPoint x="260" y="95" />
              <mxPoint x="210" y="110" />
            </Array>
          </mxGeometry>
        </mxCell>
        <mxCell id="x7fiBjVDYnCUOZbmYNum-13" value="&lt;font style=&quot;font-size: 20px&quot; face=&quot;Gloria Hallelujah&quot;&gt;3.6%&lt;/font&gt;&lt;font data-font-src=&quot;https://fonts.googleapis.com/css?family=Gloria+Hallelujah&quot; style=&quot;font-size: 20px&quot; face=&quot;Gloria Hallelujah&quot;&gt;&lt;br&gt;&lt;/font&gt;" style="text;html=1;strokeColor=none;fillColor=none;align=left;verticalAlign=middle;whiteSpace=wrap;rounded=0;sketch=1;" parent="x7fiBjVDYnCUOZbmYNum-1" vertex="1">
          <mxGeometry x="270" y="140" width="70" height="30" as="geometry" />
        </mxCell>
        <mxCell id="x7fiBjVDYnCUOZbmYNum-14" value="&lt;font data-font-src=&quot;https://fonts.googleapis.com/css?family=Gloria+Hallelujah&quot; style=&quot;font-size: 20px&quot; face=&quot;Gloria Hallelujah&quot;&gt;Participant reward breakdown&lt;br&gt;&lt;/font&gt;" style="text;html=1;strokeColor=none;fillColor=none;align=center;verticalAlign=middle;whiteSpace=wrap;rounded=0;sketch=1;" parent="x7fiBjVDYnCUOZbmYNum-1" vertex="1">
          <mxGeometry x="149" y="600" width="334" height="30" as="geometry" />
        </mxCell>
        <mxCell id="x7fiBjVDYnCUOZbmYNum-15" value="" style="endArrow=none;html=1;rounded=0;sketch=1;" parent="x7fiBjVDYnCUOZbmYNum-1" edge="1">
          <mxGeometry x="630" y="100" width="50" height="50" as="geometry">
            <mxPoint x="870" y="340" as="sourcePoint" />
            <mxPoint x="870" y="100" as="targetPoint" />
          </mxGeometry>
        </mxCell>
        <mxCell id="x7fiBjVDYnCUOZbmYNum-16" value="" style="endArrow=none;html=1;rounded=0;sketch=1;" parent="x7fiBjVDYnCUOZbmYNum-1" edge="1">
          <mxGeometry width="50" height="50" relative="1" as="geometry">
            <mxPoint x="870" y="340" as="sourcePoint" />
            <mxPoint x="1110" y="340" as="targetPoint" />
          </mxGeometry>
        </mxCell>
        <mxCell id="x7fiBjVDYnCUOZbmYNum-17" value="" style="endArrow=none;html=1;rounded=0;sketch=1;" parent="x7fiBjVDYnCUOZbmYNum-1" edge="1">
          <mxGeometry width="50" height="50" relative="1" as="geometry">
            <mxPoint x="870" y="340" as="sourcePoint" />
            <mxPoint x="636" y="394" as="targetPoint" />
          </mxGeometry>
        </mxCell>
        <mxCell id="x7fiBjVDYnCUOZbmYNum-18" value="" style="endArrow=none;html=1;rounded=0;sketch=1;" parent="x7fiBjVDYnCUOZbmYNum-1" edge="1">
          <mxGeometry width="50" height="50" relative="1" as="geometry">
            <mxPoint x="870" y="340" as="sourcePoint" />
            <mxPoint x="806" y="106" as="targetPoint" />
          </mxGeometry>
        </mxCell>
        <mxCell id="x7fiBjVDYnCUOZbmYNum-19" value="&lt;font data-font-src=&quot;https://fonts.googleapis.com/css?family=Gloria+Hallelujah&quot; style=&quot;font-size: 20px&quot; face=&quot;Gloria Hallelujah&quot;&gt;Source inclusion&lt;br&gt;25%&lt;br&gt;&lt;/font&gt;" style="text;html=1;strokeColor=none;fillColor=none;align=center;verticalAlign=middle;whiteSpace=wrap;rounded=0;sketch=1;" parent="x7fiBjVDYnCUOZbmYNum-1" vertex="1">
          <mxGeometry x="890" y="220" width="170" height="30" as="geometry" />
        </mxCell>
        <mxCell id="x7fiBjVDYnCUOZbmYNum-20" value="&lt;font data-font-src=&quot;https://fonts.googleapis.com/css?family=Gloria+Hallelujah&quot; style=&quot;font-size: 20px&quot; face=&quot;Gloria Hallelujah&quot;&gt;Head inclusion&lt;br&gt;25%&lt;br&gt;&lt;/font&gt;" style="text;html=1;strokeColor=none;fillColor=none;align=center;verticalAlign=middle;whiteSpace=wrap;rounded=0;sketch=1;" parent="x7fiBjVDYnCUOZbmYNum-1" vertex="1">
          <mxGeometry x="684" y="260" width="146" height="30" as="geometry" />
        </mxCell>
        <mxCell id="x7fiBjVDYnCUOZbmYNum-21" value="&lt;font data-font-src=&quot;https://fonts.googleapis.com/css?family=Gloria+Hallelujah&quot; style=&quot;font-size: 20px&quot; face=&quot;Gloria Hallelujah&quot;&gt;Target inclusion&lt;br&gt;46.4%&lt;br&gt;&lt;/font&gt;" style="text;html=1;strokeColor=none;fillColor=none;align=center;verticalAlign=middle;whiteSpace=wrap;rounded=0;sketch=1;" parent="x7fiBjVDYnCUOZbmYNum-1" vertex="1">
          <mxGeometry x="804" y="440" width="170" height="30" as="geometry" />
        </mxCell>
        <mxCell id="x7fiBjVDYnCUOZbmYNum-22" value="&lt;font data-font-src=&quot;https://fonts.googleapis.com/css?family=Gloria+Hallelujah&quot; style=&quot;font-size: 20px&quot; face=&quot;Gloria Hallelujah&quot;&gt;sync committee&lt;br&gt;&lt;/font&gt;" style="text;html=1;strokeColor=none;fillColor=none;align=left;verticalAlign=middle;whiteSpace=wrap;rounded=0;sketch=1;" parent="x7fiBjVDYnCUOZbmYNum-1" vertex="1">
          <mxGeometry x="670" y="80" width="70" height="30" as="geometry" />
        </mxCell>
        <mxCell id="x7fiBjVDYnCUOZbmYNum-23" value="" style="curved=1;endArrow=classic;html=1;rounded=0;sketch=1;fontFamily=Gloria Hallelujah;fontSource=https%3A%2F%2Ffonts.googleapis.com%2Fcss%3Ffamily%3DGloria%2BHallelujah;fontSize=20;" parent="x7fiBjVDYnCUOZbmYNum-1" edge="1">
          <mxGeometry width="50" height="50" relative="1" as="geometry">
            <mxPoint x="761" y="87" as="sourcePoint" />
            <mxPoint x="840" y="120" as="targetPoint" />
            <Array as="points">
              <mxPoint x="814" y="95" />
              <mxPoint x="764" y="110" />
            </Array>
          </mxGeometry>
        </mxCell>
        <mxCell id="x7fiBjVDYnCUOZbmYNum-24" value="&lt;font style=&quot;font-size: 20px&quot; face=&quot;Gloria Hallelujah&quot;&gt;3.6%&lt;/font&gt;&lt;font data-font-src=&quot;https://fonts.googleapis.com/css?family=Gloria+Hallelujah&quot; style=&quot;font-size: 20px&quot; face=&quot;Gloria Hallelujah&quot;&gt;&lt;br&gt;&lt;/font&gt;" style="text;html=1;strokeColor=none;fillColor=none;align=left;verticalAlign=middle;whiteSpace=wrap;rounded=0;sketch=1;" parent="x7fiBjVDYnCUOZbmYNum-1" vertex="1">
          <mxGeometry x="824" y="140" width="70" height="30" as="geometry" />
        </mxCell>
        <mxCell id="x7fiBjVDYnCUOZbmYNum-25" value="&lt;font data-font-src=&quot;https://fonts.googleapis.com/css?family=Gloria+Hallelujah&quot; style=&quot;font-size: 20px&quot; face=&quot;Gloria Hallelujah&quot;&gt;Proposer reward breakdown&lt;br&gt;&lt;/font&gt;" style="text;html=1;strokeColor=none;fillColor=none;align=center;verticalAlign=middle;whiteSpace=wrap;rounded=0;sketch=1;" parent="x7fiBjVDYnCUOZbmYNum-1" vertex="1">
          <mxGeometry x="723" y="600" width="290" height="30" as="geometry" />
        </mxCell>
        <mxCell id="EdaABoRClDY1kukvwAGa-10" value="" style="ellipse;whiteSpace=wrap;html=1;sketch=1;fillStyle=solid;fillColor=none;" vertex="1" parent="x7fiBjVDYnCUOZbmYNum-1">
          <mxGeometry x="70" y="90" width="490" height="500" as="geometry" />
        </mxCell>
      </root>
    </mxGraphModel>
  </diagram>
  <diagram id="2GOPfKPh1phRSvSDdrYz" name="inactivity_scores_flow">
    <mxGraphModel dx="2074" dy="1093" grid="1" gridSize="10" guides="1" tooltips="1" connect="1" arrows="1" fold="1" page="1" pageScale="1" pageWidth="827" pageHeight="1169" math="0" shadow="0">
      <root>
        <mxCell id="vkVHIJ9xFCxtMhatJJRv-0" />
        <mxCell id="vkVHIJ9xFCxtMhatJJRv-1" parent="vkVHIJ9xFCxtMhatJJRv-0" />
        <mxCell id="vkVHIJ9xFCxtMhatJJRv-2" value="&lt;font data-font-src=&quot;https://fonts.googleapis.com/css?family=Gloria+Hallelujah&quot; style=&quot;font-size: 17px&quot; face=&quot;Gloria Hallelujah&quot;&gt;Active?&lt;/font&gt;" style="rhombus;whiteSpace=wrap;html=1;shadow=0;fontFamily=Helvetica;fontSize=12;align=center;strokeWidth=1;spacing=6;spacingTop=-4;sketch=1;fillColor=none;" parent="vkVHIJ9xFCxtMhatJJRv-1" vertex="1">
          <mxGeometry x="90" y="320" width="100" height="80" as="geometry" />
        </mxCell>
        <mxCell id="vkVHIJ9xFCxtMhatJJRv-3" style="edgeStyle=orthogonalEdgeStyle;rounded=0;sketch=1;orthogonalLoop=1;jettySize=auto;html=0;exitX=1;exitY=0.5;exitDx=0;exitDy=0;fontFamily=Gloria Hallelujah;fontSource=https%3A%2F%2Ffonts.googleapis.com%2Fcss%3Ffamily%3DGloria%2BHallelujah;fontSize=17;fontColor=none;endArrow=block;endFill=0;endSize=8;strokeColor=#000000;" parent="vkVHIJ9xFCxtMhatJJRv-1" source="vkVHIJ9xFCxtMhatJJRv-15" target="vkVHIJ9xFCxtMhatJJRv-10" edge="1">
          <mxGeometry relative="1" as="geometry">
            <Array as="points">
              <mxPoint x="440" y="300" />
              <mxPoint x="440" y="360" />
            </Array>
            <mxPoint x="360" y="300" as="sourcePoint" />
          </mxGeometry>
        </mxCell>
        <mxCell id="vkVHIJ9xFCxtMhatJJRv-4" value="Yes" style="edgeStyle=orthogonalEdgeStyle;rounded=0;jettySize=auto;orthogonalLoop=1;fontSize=11;endArrow=block;endFill=0;endSize=8;strokeWidth=1;shadow=0;labelBackgroundColor=none;sketch=1;exitX=0.5;exitY=0;exitDx=0;exitDy=0;entryX=0;entryY=0.5;entryDx=0;entryDy=0;fontColor=none;noLabel=1;" parent="vkVHIJ9xFCxtMhatJJRv-1" source="vkVHIJ9xFCxtMhatJJRv-2" target="vkVHIJ9xFCxtMhatJJRv-15" edge="1">
          <mxGeometry y="10" relative="1" as="geometry">
            <mxPoint as="offset" />
            <mxPoint x="210" y="300" as="targetPoint" />
          </mxGeometry>
        </mxCell>
        <mxCell id="vkVHIJ9xFCxtMhatJJRv-5" value="" style="endArrow=block;html=1;rounded=0;sketch=1;fontSize=17;fontColor=default;entryX=0;entryY=0.5;entryDx=0;entryDy=0;endFill=0;strokeColor=#000000;endSize=8;" parent="vkVHIJ9xFCxtMhatJJRv-1" target="vkVHIJ9xFCxtMhatJJRv-2" edge="1">
          <mxGeometry width="50" height="50" relative="1" as="geometry">
            <mxPoint x="50" y="360" as="sourcePoint" />
            <mxPoint x="120" y="610" as="targetPoint" />
          </mxGeometry>
        </mxCell>
        <mxCell id="vkVHIJ9xFCxtMhatJJRv-6" value="&lt;font data-font-src=&quot;https://fonts.googleapis.com/css?family=Gloria+Hallelujah&quot; style=&quot;font-size: 16px&quot; face=&quot;Gloria Hallelujah&quot;&gt;Yes&lt;/font&gt;" style="text;html=1;strokeColor=none;fillColor=none;align=center;verticalAlign=middle;whiteSpace=wrap;rounded=0;sketch=1;fontSize=17;fontColor=none;" parent="vkVHIJ9xFCxtMhatJJRv-1" vertex="1">
          <mxGeometry x="170" y="370" width="60" height="30" as="geometry" />
        </mxCell>
        <mxCell id="vkVHIJ9xFCxtMhatJJRv-7" value="Yes" style="edgeStyle=orthogonalEdgeStyle;rounded=0;jettySize=auto;orthogonalLoop=1;fontSize=11;endArrow=block;endFill=0;endSize=8;strokeWidth=1;shadow=0;labelBackgroundColor=none;sketch=1;exitX=1;exitY=0.5;exitDx=0;exitDy=0;fontColor=none;noLabel=1;entryX=0;entryY=0.5;entryDx=0;entryDy=0;" parent="vkVHIJ9xFCxtMhatJJRv-1" source="vkVHIJ9xFCxtMhatJJRv-2" edge="1">
          <mxGeometry y="10" relative="1" as="geometry">
            <mxPoint as="offset" />
            <mxPoint x="150" y="330" as="sourcePoint" />
            <mxPoint x="230" y="360" as="targetPoint" />
          </mxGeometry>
        </mxCell>
        <mxCell id="vkVHIJ9xFCxtMhatJJRv-8" style="edgeStyle=orthogonalEdgeStyle;rounded=0;sketch=1;orthogonalLoop=1;jettySize=auto;html=0;entryX=0;entryY=0.5;entryDx=0;entryDy=0;fontFamily=Gloria Hallelujah;fontSource=https%3A%2F%2Ffonts.googleapis.com%2Fcss%3Ffamily%3DGloria%2BHallelujah;fontSize=17;fontColor=none;endArrow=block;endFill=0;endSize=8;strokeColor=#000000;exitX=1;exitY=0.5;exitDx=0;exitDy=0;" parent="vkVHIJ9xFCxtMhatJJRv-1" source="vkVHIJ9xFCxtMhatJJRv-16" target="vkVHIJ9xFCxtMhatJJRv-10" edge="1">
          <mxGeometry relative="1" as="geometry">
            <mxPoint x="420" y="360" as="sourcePoint" />
          </mxGeometry>
        </mxCell>
        <mxCell id="vkVHIJ9xFCxtMhatJJRv-9" style="edgeStyle=orthogonalEdgeStyle;rounded=0;sketch=1;orthogonalLoop=1;jettySize=auto;html=0;entryX=0;entryY=0.5;entryDx=0;entryDy=0;fontFamily=Gloria Hallelujah;fontSource=https%3A%2F%2Ffonts.googleapis.com%2Fcss%3Ffamily%3DGloria%2BHallelujah;fontSize=13;fontColor=none;endArrow=none;endFill=0;endSize=8;strokeColor=#000000;" parent="vkVHIJ9xFCxtMhatJJRv-1" source="vkVHIJ9xFCxtMhatJJRv-10" target="vkVHIJ9xFCxtMhatJJRv-18" edge="1">
          <mxGeometry relative="1" as="geometry" />
        </mxCell>
        <mxCell id="vkVHIJ9xFCxtMhatJJRv-10" value="&lt;font style=&quot;font-size: 17px&quot; data-font-src=&quot;https://fonts.googleapis.com/css?family=Gloria+Hallelujah&quot; face=&quot;Gloria Hallelujah&quot;&gt;In leak?&lt;/font&gt;" style="rhombus;whiteSpace=wrap;html=1;shadow=0;fontFamily=Helvetica;fontSize=12;align=center;strokeWidth=1;spacing=6;spacingTop=-4;sketch=1;fillColor=none;" parent="vkVHIJ9xFCxtMhatJJRv-1" vertex="1">
          <mxGeometry x="480" y="320" width="100" height="80" as="geometry" />
        </mxCell>
        <mxCell id="vkVHIJ9xFCxtMhatJJRv-11" value="&lt;font data-font-src=&quot;https://fonts.googleapis.com/css?family=Gloria+Hallelujah&quot; face=&quot;Gloria Hallelujah&quot;&gt;No&lt;/font&gt;" style="text;html=1;strokeColor=none;fillColor=none;align=center;verticalAlign=middle;whiteSpace=wrap;rounded=0;sketch=1;fontSize=17;fontColor=none;" parent="vkVHIJ9xFCxtMhatJJRv-1" vertex="1">
          <mxGeometry x="140" y="300" width="60" height="30" as="geometry" />
        </mxCell>
        <mxCell id="vkVHIJ9xFCxtMhatJJRv-12" value="&lt;font data-font-src=&quot;https://fonts.googleapis.com/css?family=Gloria+Hallelujah&quot; style=&quot;font-size: 16px&quot; face=&quot;Gloria Hallelujah&quot;&gt;Yes&lt;/font&gt;" style="text;html=1;strokeColor=none;fillColor=none;align=center;verticalAlign=middle;whiteSpace=wrap;rounded=0;sketch=1;fontSize=17;fontColor=none;" parent="vkVHIJ9xFCxtMhatJJRv-1" vertex="1">
          <mxGeometry x="530" y="300" width="60" height="30" as="geometry" />
        </mxCell>
        <mxCell id="vkVHIJ9xFCxtMhatJJRv-13" value="Yes" style="edgeStyle=orthogonalEdgeStyle;rounded=0;jettySize=auto;orthogonalLoop=1;fontSize=11;endArrow=block;endFill=0;endSize=8;strokeWidth=1;shadow=0;labelBackgroundColor=none;sketch=1;exitX=0.5;exitY=0;exitDx=0;exitDy=0;fontColor=none;noLabel=1;" parent="vkVHIJ9xFCxtMhatJJRv-1" source="vkVHIJ9xFCxtMhatJJRv-10" edge="1">
          <mxGeometry y="10" relative="1" as="geometry">
            <mxPoint as="offset" />
            <mxPoint x="504" y="310" as="sourcePoint" />
            <mxPoint x="910" y="360" as="targetPoint" />
            <Array as="points">
              <mxPoint x="530" y="300" />
              <mxPoint x="860" y="300" />
              <mxPoint x="860" y="360" />
            </Array>
          </mxGeometry>
        </mxCell>
        <mxCell id="vkVHIJ9xFCxtMhatJJRv-14" value="&lt;font data-font-src=&quot;https://fonts.googleapis.com/css?family=Gloria+Hallelujah&quot; face=&quot;Gloria Hallelujah&quot;&gt;No&lt;/font&gt;" style="text;html=1;strokeColor=none;fillColor=none;align=center;verticalAlign=middle;whiteSpace=wrap;rounded=0;sketch=1;fontSize=17;fontColor=none;" parent="vkVHIJ9xFCxtMhatJJRv-1" vertex="1">
          <mxGeometry x="560" y="370" width="60" height="30" as="geometry" />
        </mxCell>
        <mxCell id="vkVHIJ9xFCxtMhatJJRv-15" value="&lt;font data-font-src=&quot;https://fonts.googleapis.com/css?family=Gloria+Hallelujah&quot; style=&quot;font-size: 16px&quot; face=&quot;Gloria Hallelujah&quot;&gt;&lt;font style=&quot;font-size: 16px&quot;&gt;Increase score by 4&lt;/font&gt;&lt;br&gt;&lt;/font&gt;" style="rounded=1;whiteSpace=wrap;html=1;fontSize=12;glass=0;strokeWidth=1;shadow=0;sketch=1;fillColor=none;" parent="vkVHIJ9xFCxtMhatJJRv-1" vertex="1">
          <mxGeometry x="200" y="280" width="190" height="40" as="geometry" />
        </mxCell>
        <mxCell id="vkVHIJ9xFCxtMhatJJRv-16" value="&lt;font data-font-src=&quot;https://fonts.googleapis.com/css?family=Gloria+Hallelujah&quot; style=&quot;font-size: 16px&quot; face=&quot;Gloria Hallelujah&quot;&gt;Decrease score by 1&lt;/font&gt;" style="rounded=1;whiteSpace=wrap;html=1;fontSize=12;glass=0;strokeWidth=1;shadow=0;sketch=1;fillColor=none;" parent="vkVHIJ9xFCxtMhatJJRv-1" vertex="1">
          <mxGeometry x="230" y="340" width="180" height="40" as="geometry" />
        </mxCell>
        <mxCell id="vkVHIJ9xFCxtMhatJJRv-17" style="edgeStyle=orthogonalEdgeStyle;rounded=0;sketch=1;orthogonalLoop=1;jettySize=auto;html=0;fontFamily=Gloria Hallelujah;fontSource=https%3A%2F%2Ffonts.googleapis.com%2Fcss%3Ffamily%3DGloria%2BHallelujah;fontSize=13;fontColor=none;endArrow=none;endFill=0;endSize=8;strokeColor=#000000;" parent="vkVHIJ9xFCxtMhatJJRv-1" source="vkVHIJ9xFCxtMhatJJRv-18" edge="1">
          <mxGeometry relative="1" as="geometry">
            <mxPoint x="880" y="360" as="targetPoint" />
          </mxGeometry>
        </mxCell>
        <mxCell id="vkVHIJ9xFCxtMhatJJRv-18" value="&lt;font data-font-src=&quot;https://fonts.googleapis.com/css?family=Gloria+Hallelujah&quot; style=&quot;font-size: 16px&quot; face=&quot;Gloria Hallelujah&quot;&gt;&lt;font style=&quot;font-size: 16px&quot;&gt;Decrease score by 16&lt;/font&gt;&lt;br&gt;&lt;/font&gt;" style="rounded=1;whiteSpace=wrap;html=1;fontSize=12;glass=0;strokeWidth=1;shadow=0;sketch=1;fillColor=none;" parent="vkVHIJ9xFCxtMhatJJRv-1" vertex="1">
          <mxGeometry x="620" y="340" width="200" height="40" as="geometry" />
        </mxCell>
      </root>
    </mxGraphModel>
  </diagram>
</mxfile>
